<svg fill="none" xmlns="http://www.w3.org/2000/svg" viewBox="0 0.87 100 300.02">
<ellipse cx="50" cy="48.6234" rx="50" ry="47.7528" fill="#6334AD"/>
<path fill-rule="evenodd" clip-rule="evenodd" d="M76.3403 8.02647C82.3258 22.3166 80.5747 47.3326 71.7647 60.4212C63.1129 73.2746 46.552 83.4382 23.9516 89.3921C9.58664 81.0024 0 65.8821 0 48.6234C0 22.2502 22.3858 0.870575 50 0.870575C59.666 0.870575 68.6914 3.49013 76.3403 8.02647Z" fill="#8952E0"/>
<rect y="109.859" width="100" height="191.011" rx="25" fill="#6334AD"/>
<path fill-rule="evenodd" clip-rule="evenodd" d="M97.64 124.242C97.5307 149.378 96.0659 213.121 87.0588 235.702C76.565 262.01 54.4403 292.874 14.9155 298.753C6.13113 294.876 0 286.089 0 275.871V134.859C0 121.052 11.1929 109.859 25 109.859H75C85.0109 109.859 93.6476 115.744 97.64 124.242Z" fill="#8952E0"/>
</svg>