<svg fill="none" xmlns="http://www.w3.org/2000/svg" viewBox="10.13 8.23 330.7 264.15">
<path d="M215.522 120.067C219.978 109.986 231.748 105.408 241.84 109.83L256.175 116.112C260.303 117.921 264.921 118.282 269.281 117.136L284.42 113.158C295.076 110.358 305.987 116.705 308.822 127.352L312.855 142.495C314.014 146.849 316.61 150.683 320.221 153.377L332.78 162.746C341.608 169.333 343.448 181.821 336.895 190.677L327.577 203.27C324.896 206.894 323.517 211.316 323.663 215.82L324.171 231.476C324.528 242.491 315.91 251.721 304.898 252.118L289.26 252.68C284.756 252.843 280.437 254.522 277.006 257.447L265.095 267.599C256.708 274.748 244.12 273.766 236.947 265.402L226.751 253.514C223.817 250.094 219.814 247.765 215.391 246.905L200.017 243.916C189.205 241.814 182.13 231.362 184.193 220.54L187.128 205.144C187.972 200.718 187.296 196.136 185.212 192.142L177.961 178.251C172.863 168.484 176.623 156.431 186.371 151.295L200.221 143.997C204.209 141.896 207.37 138.509 209.193 134.386L215.522 120.067Z" fill="#6334AD"/>
<path fill-rule="evenodd" clip-rule="evenodd" d="M241.84 109.83C231.748 105.408 219.978 109.986 215.522 120.067L209.193 134.386C207.37 138.509 204.209 141.896 200.221 143.997L186.371 151.295C176.623 156.431 172.863 168.484 177.961 178.251L185.212 192.142C187.296 196.136 187.972 200.718 187.128 205.144L184.193 220.54C182.13 231.362 189.205 241.814 200.017 243.916L215.391 246.905C219.814 247.765 223.817 250.094 226.751 253.515L232.919 260.706C252.338 252.7 273.026 240.898 287.881 224.488C306.629 203.778 317.183 176.673 322.553 155.117L320.221 153.377C316.61 150.683 314.014 146.849 312.855 142.495L308.822 127.352C305.987 116.705 295.076 110.358 284.42 113.158L269.281 117.136C264.921 118.282 260.303 117.921 256.175 116.112L241.84 109.83Z" fill="#8952E0"/>
<ellipse cx="257.138" cy="188.173" rx="32.5953" ry="32.6091" fill="#6334AD" fill-opacity="0.75"/>
<path d="M91.4766 14.0768C99.282 6.29539 111.912 6.29539 119.717 14.0768L135.03 29.3423C138.222 32.525 142.396 34.5358 146.875 35.0486L168.357 37.5082C179.303 38.7615 187.174 48.6314 185.96 59.5819L183.575 81.097C183.079 85.5747 184.109 90.0889 186.498 93.9082L197.98 112.26C203.822 121.598 201.014 133.902 191.698 139.781L173.401 151.328C169.59 153.733 166.703 157.354 165.207 161.605L158.028 182.015C154.372 192.411 142.994 197.89 132.586 194.268L112.172 187.161C107.914 185.679 103.28 185.679 99.0219 187.161L78.6073 194.268C68.1995 197.89 56.8221 192.411 53.1654 182.015L45.9865 161.605C44.4912 157.354 41.6041 153.733 37.7931 151.328L19.4957 139.781C10.1801 133.902 7.3717 121.598 13.2141 112.26L24.6954 93.9082C27.0848 90.0889 28.1148 85.5747 27.6185 81.097L25.2335 59.5819C24.0196 48.6314 31.8906 38.7615 42.8367 37.5082L64.3187 35.0486C68.7973 34.5358 72.9714 32.525 76.1639 29.3423L91.4766 14.0768Z" fill="#6334AD"/>
<path fill-rule="evenodd" clip-rule="evenodd" d="M119.717 14.0768C111.912 6.2954 99.2821 6.2954 91.4767 14.0768L76.164 29.3423C72.9715 32.525 68.7974 34.5358 64.3188 35.0486L42.8367 37.5082C31.8907 38.7615 24.0197 48.6314 25.2336 59.5819L27.6185 81.097C28.1149 85.5747 27.0849 90.0889 24.6954 93.9082L13.2142 112.26C7.37178 121.598 10.1802 133.902 19.4957 139.781L37.7932 151.328C41.6042 153.733 44.4913 157.354 45.9866 161.605L53.1655 182.015C55.0701 187.43 59.0691 191.511 63.9347 193.667C89.6386 184.785 120.061 169.802 140.655 147.053C168.171 116.658 180.208 74.1829 184.087 48.6657C181.199 42.7099 175.418 38.3166 168.357 37.5082L146.875 35.0486C142.397 34.5358 138.222 32.525 135.03 29.3423L119.717 14.0768Z" fill="#8952E0"/>
<ellipse cx="105.597" cy="105.641" rx="37.1701" ry="37.1858" fill="#6334AD" fill-opacity="0.75"/>
</svg>