<svg width="303" height="327" viewBox="0 0 303 327" fill="none" xmlns="http://www.w3.org/2000/svg">
<path fill-rule="evenodd" clip-rule="evenodd" d="M184.765 26.5472C182.077 24.193 178.338 23.4513 174.956 24.6014L50.0278 67.0815C46.6453 68.2317 44.1334 71.099 43.4382 74.6033L26.3338 160.828C26.0632 191.571 132.527 213.5 187.522 220.79C72.1825 206.066 59.2871 236.811 67.2568 254.024L67.229 254.016L120.235 300.453C122.923 302.807 126.662 303.549 130.044 302.399L254.972 259.919C258.355 258.768 260.867 255.901 261.562 252.397L278.69 166.054C278.96 135.311 172.496 113.382 117.501 106.093C232.391 120.759 245.634 90.3105 237.859 73.0604L184.765 26.5472Z" fill="#8952E0"/>
<path fill-rule="evenodd" clip-rule="evenodd" d="M44.8876 71.061L258.835 257.511C257.767 258.582 256.453 259.415 254.972 259.919L130.044 302.399C126.662 303.549 122.923 302.807 120.235 300.453L67.229 254.016L67.2568 254.024C59.2871 236.811 72.1825 206.066 187.522 220.79C132.527 213.5 26.0632 191.571 26.3339 160.828L43.4382 74.6033C43.693 73.3193 44.1916 72.1208 44.8876 71.061Z" fill="#6334AD"/>
</svg>
